STARTFONT 2.1
COMMENT $XConsortium: luBIS19.bdf,v 1.4 94/04/02 16:22:54 gildea Exp $
COMMENT  (c) Copyright Bigelow & Holmes 1986, 1985. Lucida is a registered
COMMENT  trademark of Bigelow & Holmes. See LEGAL NOTICE file for terms 
COMMENT  of the license. 
COMMENT  
COMMENT  Translation to ISO8859-2 by Cub Soft;  Petr.Kolar@vslib.cz
COMMENT  
FONT -B&H-Lucida-Bold-I-Normal-Sans-26-190-100-100-P-166-ISO8859-2
SIZE 19 100 100
FONTBOUNDINGBOX 53 29 -17 -5
STARTPROPERTIES 20
COMMENT Begin LogicalFontDescription
FONTNAME_REGISTRY ""
FOUNDRY "B&H"
FAMILY_NAME "Lucida"
WEIGHT_NAME "Bold"
SLANT "I"
SETWIDTH_NAME "Normal"
ADD_STYLE_NAME "Sans"
PIXEL_SIZE 26
POINT_SIZE 190
RESOLUTION_X 100
RESOLUTION_Y 100
SPACING "P"
AVERAGE_WIDTH "166"
CHARSET_REGISTRY "ISO8859"
CHARSET_ENCODING "2"
COMMENT END LogicalFontDescription
COPYRIGHT "Copyright Bigelow & Holmes 1986, 1985., Copyright 1996 Cub Soft"
FONT_ASCENT 24
FONT_DESCENT 6
DEFAULT_CHAR 0
FACE_NAME "Lucida Sans Bold Italic"
ENDPROPERTIES
CHARS 191
STARTCHAR space
ENCODING 32
SWIDTH 343 0
DWIDTH 9 0
BBX 1 1 0 0
BITMAP
00
ENDCHAR
STARTCHAR exclam
ENCODING 33
SWIDTH 343 0
DWIDTH 9 0
BBX 9 19 2 0
BITMAP
0f80
0f80
1f80
1f00
1f00
1f00
1e00
1e00
1e00
3e00
3c00
3c00
3c00
0000
0000
0000
7c00
fc00
f800
ENDCHAR
STARTCHAR quotedbl
ENCODING 34
SWIDTH 530 0
DWIDTH 14 0
BBX 12 9 4 11
BITMAP
f9f0
f9f0
f9f0
f9f0
70e0
70e0
70e0
70e0
70e0
ENDCHAR
STARTCHAR numbersign
ENCODING 35
SWIDTH 687 0
DWIDTH 18 0
BBX 17 19 2 0
BITMAP
007380
006300
00c700
00c600
018e00
3fff80
7fff80
071800
063800
0e3000
0c7000
7fff00
fffe00
38c000
31c000
318000
618000
630000
e70000
ENDCHAR
STARTCHAR dollar
ENCODING 36
SWIDTH 687 0
DWIDTH 18 0
BBX 16 25 2 -3
BITMAP
0070
0070
0070
01fe
07ff
0fff
0f62
1e60
1f60
1fe0
0fc0
07e0
03f0
01f8
01fc
03fc
033c
433c
637c
fff8
fff0
7fe0
0700
0700
0700
ENDCHAR
STARTCHAR percent
ENCODING 37
SWIDTH 908 0
DWIDTH 24 0
BBX 22 19 3 0
BITMAP
0f003c
3f8070
7fc0e0
7bc1e0
f3c3c0
f3c780
f3cf00
ff9e00
7f3c00
3e7800
00f1f0
01e3f8
03c7fc
078f3c
0f0f3c
1e0f3c
1c0ff8
380ff0
f003e0
ENDCHAR
STARTCHAR ampersand
ENCODING 38
SWIDTH 816 0
DWIDTH 21 0
BBX 20 19 2 0
BITMAP
007e00
01ff00
03ff80
07c780
07c780
07cf00
03fe00
03fc00
07e0f0
1ff0f0
3cf8e0
78f9e0
f87dc0
f83f80
f83f00
fc3e00
7fff00
3fff80
0fcfc0
ENDCHAR
STARTCHAR apostrophe
ENCODING 39
SWIDTH 265 0
DWIDTH 7 0
BBX 7 9 3 11
BITMAP
3e
7e
7e
7c
7c
1c
38
f8
e0
ENDCHAR
STARTCHAR parenleft
ENCODING 40
SWIDTH 386 0
DWIDTH 10 0
BBX 10 24 2 -4
BITMAP
0040
01c0
03c0
0780
0f00
1f00
1e00
3e00
7c00
7c00
7c00
f800
f800
f800
f800
f800
f800
f800
7800
7800
3c00
3c00
1c00
0400
ENDCHAR
STARTCHAR parenright
ENCODING 41
SWIDTH 386 0
DWIDTH 10 0
BBX 10 24 1 -4
BITMAP
0400
0600
0f00
0f80
0780
07c0
03c0
03c0
03c0
03c0
07c0
07c0
07c0
07c0
0f80
0f80
0f00
1f00
1e00
3c00
7800
f000
e000
8000
ENDCHAR
STARTCHAR asterisk
ENCODING 42
SWIDTH 464 0
DWIDTH 12 0
BBX 10 10 4 9
BITMAP
0f00
0e00
6ec0
77c0
f3c0
0000
3e00
f700
7600
2400
ENDCHAR
STARTCHAR plus
ENCODING 43
SWIDTH 687 0
DWIDTH 18 0
BBX 16 16 2 0
BITMAP
00e0
00e0
00c0
01c0
01c0
01c0
ffff
ffff
ffff
0380
0380
0380
0380
0700
0700
0700
ENDCHAR
STARTCHAR comma
ENCODING 44
SWIDTH 343 0
DWIDTH 9 0
BBX 7 9 1 -4
BITMAP
3e
7e
7e
7c
7c
1c
38
f8
e0
ENDCHAR
STARTCHAR minus
ENCODING 45
SWIDTH 687 0
DWIDTH 18 0
BBX 16 3 2 6
BITMAP
7fff
ffff
fffe
ENDCHAR
STARTCHAR period
ENCODING 46
SWIDTH 343 0
DWIDTH 9 0
BBX 6 5 2 0
BITMAP
7c
7c
fc
f8
f8
ENDCHAR
STARTCHAR slash
ENCODING 47
SWIDTH 596 0
DWIDTH 15 0
BBX 20 24 0 -4
BITMAP
0000f0
0001e0
0001c0
000380
000780
000700
000e00
001e00
001c00
003800
007800
007000
00e000
01e000
01c000
038000
078000
070000
0e0000
1e0000
1c0000
380000
780000
f00000
ENDCHAR
STARTCHAR zero
ENCODING 48
SWIDTH 687 0
DWIDTH 18 0
BBX 17 19 2 0
BITMAP
01f800
07fe00
0ffe00
1f1f00
3e0f00
3e0f80
7c0f80
7c1f80
7c1f80
fc1f00
f81f00
f83f00
f83e00
f83e00
f87c00
7cf800
7ff800
3fe000
0f8000
ENDCHAR
STARTCHAR one
ENCODING 49
SWIDTH 687 0
DWIDTH 18 0
BBX 9 19 6 0
BITMAP
7f80
7f80
7f00
1f00
1f00
1f00
1f00
3e00
3e00
3e00
3e00
3e00
7c00
7c00
7c00
7c00
7c00
f800
f800
ENDCHAR
STARTCHAR two
ENCODING 50
SWIDTH 687 0
DWIDTH 18 0
BBX 17 19 2 0
BITMAP
03fc00
0fff00
0fff00
181f80
000f80
000f80
001f80
001f00
007e00
00fc00
01f000
07e000
0f8000
1f0000
3e0000
7c0000
7ffe00
fffc00
fffc00
ENDCHAR
STARTCHAR three
ENCODING 51
SWIDTH 687 0
DWIDTH 18 0
BBX 16 19 3 0
BITMAP
07f8
0ffe
0fff
183f
001f
001e
003e
0078
1fe0
1ff0
1ffc
00fc
007e
003e
007e
40fc
fff8
fff0
7fc0
ENDCHAR
STARTCHAR four
ENCODING 52
SWIDTH 687 0
DWIDTH 18 0
BBX 16 19 2 0
BITMAP
001f
003f
007e
00fe
01fe
03fe
07be
0f3c
1e3c
3c3c
7c7c
7fff
ffff
fffe
0078
00f8
00f8
00f0
00f0
ENDCHAR
STARTCHAR five
ENCODING 53
SWIDTH 687 0
DWIDTH 18 0
BBX 16 19 3 0
BITMAP
0fff
0fff
1ffe
1c00
1c00
1800
1f80
3fe0
3ff0
03f8
00fc
00fc
007c
007c
00fc
41f8
fff0
ffe0
ff80
ENDCHAR
STARTCHAR six
ENCODING 54
SWIDTH 687 0
DWIDTH 18 0
BBX 17 19 3 0
BITMAP
00ff00
03ff80
0fff80
1f8100
1f0000
3e0000
7e0000
7df800
7ffc00
fffe00
fc3f00
f81f00
f81f00
f81e00
f83e00
7c7c00
7ffc00
3ff000
0fc000
ENDCHAR
STARTCHAR seven
ENCODING 55
SWIDTH 687 0
DWIDTH 18 0
BBX 15 19 5 0
BITMAP
7ffe
7ffe
fffe
003c
007c
00f8
01f0
01e0
03c0
0780
0f00
1f00
1e00
3e00
7c00
7c00
7800
f800
f800
ENDCHAR
STARTCHAR eight
ENCODING 56
SWIDTH 687 0
DWIDTH 18 0
BBX 16 19 3 0
BITMAP
01fc
07fe
0fff
1f1f
1e0f
1e0f
1f1e
0ffc
07f0
0ff8
3ffc
7c7e
783e
f81e
f83e
fc3c
fffc
7ff0
1fc0
ENDCHAR
STARTCHAR nine
ENCODING 57
SWIDTH 687 0
DWIDTH 18 0
BBX 17 19 2 0
BITMAP
01f800
07fe00
1fff00
1f1f00
3e0f80
3c0f80
7c0f80
7c0f80
7e1f80
3fff80
1fff00
0fdf00
003f00
003e00
007c00
40fc00
fff800
ffe000
7f8000
ENDCHAR
STARTCHAR colon
ENCODING 58
SWIDTH 343 0
DWIDTH 9 0
BBX 8 14 2 0
BITMAP
1f
1f
3e
3e
3e
00
00
00
00
7c
7c
fc
f8
f8
ENDCHAR
STARTCHAR semicolon
ENCODING 59
SWIDTH 343 0
DWIDTH 9 0
BBX 9 18 1 -4
BITMAP
0f80
1f80
1f00
1f00
1f00
0000
0000
0000
0000
3e00
3e00
7e00
7c00
7c00
1c00
3800
f800
e000
ENDCHAR
STARTCHAR less
ENCODING 60
SWIDTH 687 0
DWIDTH 18 0
BBX 17 16 3 0
BITMAP
000080
000380
000f80
003f00
00fc00
03f000
1fc000
ff0000
7e0000
1f0000
0fc000
03f000
00fc00
003e00
001c00
000400
ENDCHAR
STARTCHAR equal
ENCODING 61
SWIDTH 687 0
DWIDTH 18 0
BBX 17 9 2 3
BITMAP
3fff80
7fff80
7fff00
000000
000000
000000
7fff00
ffff00
fffe00
ENDCHAR
STARTCHAR greater
ENCODING 62
SWIDTH 687 0
DWIDTH 18 0
BBX 17 16 1 0
BITMAP
100000
1c0000
3e0000
1f8000
07e000
01f800
007c00
003f00
007f80
01fc00
07e000
1f8000
7e0000
f80000
e00000
800000
ENDCHAR
STARTCHAR question
ENCODING 63
SWIDTH 539 0
DWIDTH 14 0
BBX 13 19 3 0
BITMAP
3fc0
7ff0
fff8
c1f8
00f8
00f8
01f0
03e0
07c0
0f80
1f00
3e00
7e00
0000
0000
0000
7c00
fc00
f800
ENDCHAR
STARTCHAR at
ENCODING 64
SWIDTH 833 0
DWIDTH 22 0
BBX 19 19 3 0
BITMAP
00fc00
03ff00
0f03c0
1c00c0
3800e0
30fc60
61fc60
630c60
c61c60
c61860
cc3860
cef8c0
cfd9c0
cf9f80
671e00
700000
383000
1ff000
07e000
ENDCHAR
STARTCHAR A
ENCODING 65
SWIDTH 771 0
DWIDTH 20 0
BBX 19 19 0 0
BITMAP
003e00
007f00
007f00
00ff00
00ff00
01ef00
01cf80
03cf80
038f80
078f80
070780
0fffc0
1fffc0
1fffc0
3c07c0
3803c0
7803e0
7003e0
f003e0
ENDCHAR
STARTCHAR B
ENCODING 66
SWIDTH 660 0
DWIDTH 17 0
BBX 16 19 2 0
BITMAP
0ffc
1ffe
1fff
1f1f
1e1f
1e1f
3e3e
3e7c
3ff0
3ff0
3ffc
7c7e
7c3e
7c3e
783e
787e
fffc
fff8
ffe0
ENDCHAR
STARTCHAR C
ENCODING 67
SWIDTH 737 0
DWIDTH 19 0
BBX 19 19 2 0
BITMAP
007fc0
01ffe0
07ffe0
0fc040
1f8000
3f0000
3e0000
7c0000
7c0000
f80000
f80000
f80000
f80000
fc0000
fc0000
7f0300
7fff00
3fff00
07f800
ENDCHAR
STARTCHAR D
ENCODING 68
SWIDTH 822 0
DWIDTH 21 0
BBX 20 19 2 0
BITMAP
0fff00
1fffc0
1fffe0
1f07f0
1f03f0
1e01f0
3e01f0
3e01f0
3e01f0
3e03f0
3e03e0
7c03e0
7c07e0
7c0fc0
7c1fc0
7c3f80
ffff00
fffc00
fff000
ENDCHAR
STARTCHAR E
ENCODING 69
SWIDTH 642 0
DWIDTH 17 0
BBX 17 19 2 0
BITMAP
0fff80
0fff80
1fff00
1f0000
1f0000
1f0000
1f0000
3f0000
3ffc00
3ffc00
3ff800
3e0000
7e0000
7c0000
7c0000
7c0000
7ffc00
fffc00
fffc00
ENDCHAR
STARTCHAR F
ENCODING 70
SWIDTH 614 0
DWIDTH 16 0
BBX 17 19 2 0
BITMAP
0fff80
0fff80
1fff00
1f0000
1f0000
1f0000
1f0000
3e0000
3ffc00
3ff800
3ff800
3e0000
7c0000
7c0000
7c0000
7c0000
7c0000
f80000
f80000
ENDCHAR
STARTCHAR G
ENCODING 71
SWIDTH 755 0
DWIDTH 20 0
BBX 19 19 2 0
BITMAP
007fc0
01ffe0
07ffe0
0fc040
1f8000
3f0000
3e0000
7c0000
7c0000
f80000
f80f80
f80f80
f80f80
fc0f00
fc0f00
7f1f00
7fff00
3fff00
07fc00
ENDCHAR
STARTCHAR H
ENCODING 72
SWIDTH 813 0
DWIDTH 21 0
BBX 20 19 2 0
BITMAP
0f81f0
1f01f0
1f01f0
1f03e0
1f03e0
1f03e0
3e03e0
3e03e0
3fffc0
3fffc0
3fffc0
7c07c0
7c07c0
7c0780
7c0f80
7c0f80
f80f80
f80f80
f81f00
ENDCHAR
STARTCHAR I
ENCODING 73
SWIDTH 361 0
DWIDTH 9 0
BBX 9 19 2 0
BITMAP
0f80
0f80
1f00
1f00
1f00
1f00
1f00
3e00
3e00
3e00
3e00
3e00
7c00
7c00
7c00
7c00
7c00
f800
f800
ENDCHAR
STARTCHAR J
ENCODING 74
SWIDTH 502 0
DWIDTH 13 0
BBX 15 23 0 -4
BITMAP
003e
003e
007c
007c
007c
007c
007c
00f8
00f8
00f8
00f8
00f8
01f0
01f0
01f0
01f0
01f0
03f0
03e0
47e0
ffc0
ff80
fe00
ENDCHAR
STARTCHAR K
ENCODING 75
SWIDTH 753 0
DWIDTH 20 0
BBX 18 19 2 0
BITMAP
0f83c0
1f8780
1f0f00
1f1e00
1f1c00
1f3c00
3f7800
3ef000
3ee000
3ff000
3ff800
7ef800
7cfc00
7c7c00
7c7e00
7c3e00
fc3f00
f81f80
f81f80
ENDCHAR
STARTCHAR L
ENCODING 76
SWIDTH 623 0
DWIDTH 16 0
BBX 14 19 2 0
BITMAP
0f80
1f00
1f00
1f00
1f00
1f00
3e00
3e00
3e00
3e00
3e00
7c00
7c00
7c00
7c00
7c00
fffc
fffc
fffc
ENDCHAR
STARTCHAR M
ENCODING 77
SWIDTH 940 0
DWIDTH 24 0
BBX 24 19 2 0
BITMAP
0fc03f
1fc07f
1fe07e
1fe0fe
1fe0fe
1de1fe
3de1fe
3de3bc
3de7bc
3de73c
39ef7c
79fe7c
79fe78
79fc78
78f878
70f8f8
f0f0f8
f0f0f0
f000f0
ENDCHAR
STARTCHAR N
ENCODING 78
SWIDTH 789 0
DWIDTH 20 0
BBX 20 19 2 0
BITMAP
0f00f0
1f80f0
1f80f0
1fc1e0
1fc1e0
1fe1e0
3fe1e0
3ff1e0
3df3c0
3dfbc0
3cfbc0
78ffc0
787fc0
787f80
783f80
783f80
f01f80
f01f80
f00f00
ENDCHAR
STARTCHAR O
ENCODING 79
SWIDTH 855 0
DWIDTH 22 0
BBX 21 19 3 0
BITMAP
007f00
01ffc0
07ffe0
0fc3f0
1f01f8
3e01f8
3e01f8
7c01f8
7c01f8
fc01f8
f801f0
f801f0
f803e0
fc07e0
fc07c0
7e1f80
3fff00
1ffc00
07f000
ENDCHAR
STARTCHAR P
ENCODING 80
SWIDTH 645 0
DWIDTH 17 0
BBX 17 19 2 0
BITMAP
0ffe00
1fff00
1fff80
1f1f80
1f0f80
1e0f80
3e0f00
3e1f00
3e3e00
3ffe00
3ff800
7fe000
7c0000
7c0000
7c0000
7c0000
f80000
f80000
f80000
ENDCHAR
STARTCHAR Q
ENCODING 81
SWIDTH 855 0
DWIDTH 22 0
BBX 21 23 3 -4
BITMAP
007f00
01ffc0
07ffe0
0fc3f0
1f01f8
3e01f8
3e01f8
7c01f8
7c01f8
fc01f8
f801f0
f801f0
f803e0
fc07e0
fc07c0
7e1f80
3fff00
1ffc00
07fe00
003fe0
000ff8
0003f0
0000e0
ENDCHAR
STARTCHAR R
ENCODING 82
SWIDTH 708 0
DWIDTH 18 0
BBX 17 19 2 0
BITMAP
0ffe00
1fff00
1fff80
1f0f80
1f0f80
1e0f80
3e1f00
3e3f00
3efe00
3ff800
3ff000
7cf800
7cf800
7c7800
7c7c00
787c00
f83e00
f83e00
f83f00
ENDCHAR
STARTCHAR S
ENCODING 83
SWIDTH 639 0
DWIDTH 17 0
BBX 16 19 2 0
BITMAP
01fe
07ff
0fff
1f02
1f00
1f00
1f80
1fc0
1ff0
07f8
03fc
00fc
007e
007e
007c
607c
fff8
fff0
ff80
ENDCHAR
STARTCHAR T
ENCODING 84
SWIDTH 747 0
DWIDTH 19 0
BBX 19 19 4 0
BITMAP
ffffe0
ffffe0
ffffe0
01f000
03e000
03e000
03e000
03e000
03e000
03c000
07c000
07c000
07c000
07c000
078000
0f8000
0f8000
0f8000
0f8000
ENDCHAR
STARTCHAR U
ENCODING 85
SWIDTH 759 0
DWIDTH 20 0
BBX 18 19 3 0
BITMAP
3e03c0
3e07c0
3e07c0
3e0780
3c0780
7c0780
7c0f80
7c0f80
7c0f00
7c0f00
f80f00
f80f00
f81f00
f81e00
f81e00
fc3c00
7ffc00
3ff000
0fe000
ENDCHAR
STARTCHAR V
ENCODING 86
SWIDTH 765 0
DWIDTH 20 0
BBX 18 19 4 0
BITMAP
f803c0
f80380
f80780
7c0700
7c0f00
7c0e00
7c1e00
7c1c00
7c3800
3e3800
3e7000
3e7000
3ee000
3fe000
3fc000
1fc000
1f8000
1f8000
1f0000
ENDCHAR
STARTCHAR W
ENCODING 87
SWIDTH 991 0
DWIDTH 26 0
BBX 24 19 4 0
BITMAP
f83c0f
f83c0e
f87c1e
f87c1c
f87c3c
f8fc38
f8fe78
f9fe70
f9fe70
fbfef0
fbbee0
7bbfe0
7f3fc0
7f3fc0
7e3f80
7e3f80
7e3f00
7c3f00
7c3e00
ENDCHAR
STARTCHAR X
ENCODING 88
SWIDTH 696 0
DWIDTH 18 0
BBX 21 19 0 0
BITMAP
0fc078
07c0f0
07e1e0
03e3c0
03e780
03ff00
01fe00
01fc00
00fc00
00f800
01fc00
03fc00
03fe00
07be00
0f3e00
1e3f00
3c1f00
781f80
f80f80
ENDCHAR
STARTCHAR Y
ENCODING 89
SWIDTH 681 0
DWIDTH 18 0
BBX 17 19 4 0
BITMAP
f80780
7c0f00
7c1e00
7c3c00
3e3800
3e7800
3ef000
1fe000
1fc000
1fc000
0f8000
0f8000
1f8000
1f0000
1f0000
1f0000
1f0000
3f0000
3e0000
ENDCHAR
STARTCHAR Z
ENCODING 90
SWIDTH 687 0
DWIDTH 18 0
BBX 18 19 2 0
BITMAP
0fffc0
0fffc0
0fffc0
001f80
003f00
007e00
00fe00
00fc00
01f800
03f000
07e000
0fc000
1fc000
1f8000
3f0000
7e0000
7ffe00
fffe00
fffe00
ENDCHAR
STARTCHAR bracketleft
ENCODING 91
SWIDTH 386 0
DWIDTH 10 0
BBX 11 24 1 -4
BITMAP
07e0
0fe0
0fc0
0f00
0f00
0f00
1e00
1e00
1e00
1e00
1e00
3c00
3c00
3c00
3c00
3c00
7c00
7800
7800
7800
7800
fe00
fe00
fc00
ENDCHAR
STARTCHAR backslash
ENCODING 92
SWIDTH 566 0
DWIDTH 15 0
BBX 10 24 4 -4
BITMAP
f000
7000
7000
7000
7800
3800
3800
3800
1c00
1c00
1c00
1c00
0e00
0e00
0e00
0e00
0700
0700
0700
0780
0380
0380
0380
03c0
ENDCHAR
STARTCHAR bracketright
ENCODING 93
SWIDTH 386 0
DWIDTH 10 0
BBX 11 24 1 -4
BITMAP
0fe0
0fe0
0fe0
03c0
03c0
03c0
03c0
07c0
0780
0780
0780
0780
0780
0f00
0f00
0f00
0f00
0f00
1e00
1e00
1e00
fe00
fe00
fc00
ENDCHAR
STARTCHAR asciicircum
ENCODING 94
SWIDTH 687 0
DWIDTH 18 0
BBX 15 16 2 3
BITMAP
0020
0020
0060
00e0
00f0
01f0
03f0
03b8
0738
0f38
0e38
1c1c
3c1c
381c
700e
f00e
ENDCHAR
STARTCHAR underscore
ENCODING 95
SWIDTH 500 0
DWIDTH 13 0
BBX 12 3 0 -3
BITMAP
fff0
fff0
ffe0
ENDCHAR
STARTCHAR grave
ENCODING 96
SWIDTH 663 0
DWIDTH 17 0
BBX 6 3 9 17
BITMAP
f0
38
1c
ENDCHAR
STARTCHAR a
ENCODING 97
SWIDTH 681 0
DWIDTH 18 0
BBX 16 14 2 0
BITMAP
01ff
07ff
0fff
1f1e
3e3e
7c3e
7c7e
787e
f8bc
f9bc
ff7c
fe7c
fc7c
78f8
ENDCHAR
STARTCHAR b
ENCODING 98
SWIDTH 681 0
DWIDTH 18 0
BBX 16 20 2 0
BITMAP
0f80
0f00
1f00
1f00
1f00
1f00
1e1e
3e3e
3e7f
3eff
3d9f
3d1f
7e1e
7e3e
7c3e
7c7c
78f8
fff0
ffe0
ff80
ENDCHAR
STARTCHAR c
ENCODING 99
SWIDTH 548 0
DWIDTH 14 0
BBX 14 14 2 0
BITMAP
01f8
07fc
0ff8
3f08
3e00
7c00
7c00
f800
f800
f800
fc30
fff0
7fe0
1f80
ENDCHAR
STARTCHAR d
ENCODING 100
SWIDTH 681 0
DWIDTH 18 0
BBX 18 20 2 0
BITMAP
0007c0
0007c0
000f80
000f80
000f80
000f80
01ff80
07ff00
0fff00
1f1f00
3e1f00
3c1f00
7c3e00
787e00
f8fe00
f9be00
ffbe00
ff7c00
7e7c00
387c00
ENDCHAR
STARTCHAR e
ENCODING 101
SWIDTH 612 0
DWIDTH 16 0
BBX 14 14 2 0
BITMAP
01f0
07f8
1ffc
3e7c
3c7c
7cf8
7ff0
ffe0
ff80
f804
fc1c
fffc
7ff8
1fc0
ENDCHAR
STARTCHAR f
ENCODING 102
SWIDTH 464 0
DWIDTH 12 0
BBX 15 25 1 -5
BITMAP
00fc
01fe
03fe
07c6
0f80
0f80
3ff0
3ff0
7ff0
1f00
1f00
1f00
3e00
3e00
3e00
3e00
3e00
7c00
7c00
7c00
7c00
7c00
f800
f800
f800
ENDCHAR
STARTCHAR g
ENCODING 103
SWIDTH 674 0
DWIDTH 17 0
BBX 17 19 1 -5
BITMAP
00ff80
03ff80
07ff80
0f1f00
1e1f00
3e1f00
3c3f00
7c7f00
7cde00
7dde00
7fbe00
7f3e00
7e3e00
3c7c00
807c00
e0fc00
fff800
7ff000
7f8000
ENDCHAR
STARTCHAR h
ENCODING 104
SWIDTH 675 0
DWIDTH 18 0
BBX 16 20 2 0
BITMAP
0f80
0f80
1f80
1f00
1f00
1f00
1f1e
3e3f
3e7f
3eff
3edf
3d9f
7f3e
7e3e
7c3e
7c3e
7c3e
fc7c
f87c
f87c
ENDCHAR
STARTCHAR i
ENCODING 105
SWIDTH 343 0
DWIDTH 9 0
BBX 9 20 2 0
BITMAP
0f80
0f80
1f00
1f00
0000
0000
1f00
3e00
3e00
3e00
3e00
3e00
7c00
7c00
7c00
7c00
7c00
f800
f800
f800
ENDCHAR
STARTCHAR j
ENCODING 106
SWIDTH 407 0
DWIDTH 11 0
BBX 15 25 -1 -5
BITMAP
003e
003e
003c
007c
0000
0000
007c
007c
00f8
00f8
00f8
00f8
01f8
01f0
01f0
01f0
01f0
03f0
03e0
03e0
03e0
c7c0
ff80
ff00
7c00
ENDCHAR
STARTCHAR k
ENCODING 107
SWIDTH 666 0
DWIDTH 17 0
BBX 17 20 2 0
BITMAP
0f8000
0f8000
0f8000
1f0000
1f0000
1f0000
1f0780
1f0f00
3e1e00
3e3c00
3e7800
3ef000
3ff000
7df000
7cf800
7cf800
7cfc00
7c7c00
f87e00
f83e00
ENDCHAR
STARTCHAR l
ENCODING 108
SWIDTH 343 0
DWIDTH 9 0
BBX 9 20 2 0
BITMAP
0f80
0f80
1f80
1f00
1f00
1f00
1f00
3f00
3e00
3e00
3e00
3e00
7e00
7c00
7c00
7c00
7c00
fc00
f800
f800
ENDCHAR
STARTCHAR m
ENCODING 109
SWIDTH 991 0
DWIDTH 26 0
BBX 24 14 2 0
BITMAP
1e1c1e
3e7e3f
3efe7f
3ffeff
3dbfdf
3fbf9f
7f3f1e
7e3f3e
7e3e3e
7c7c3e
787c3e
f87c3c
f87c7c
f8787c
ENDCHAR
STARTCHAR n
ENCODING 110
SWIDTH 675 0
DWIDTH 18 0
BBX 16 14 2 0
BITMAP
1f1e
1e3f
3e7f
3eff
3edf
3d9f
3f3e
7e3e
7c3e
7c3e
7c3e
787c
f87c
f87c
ENDCHAR
STARTCHAR o
ENCODING 111
SWIDTH 663 0
DWIDTH 17 0
BBX 16 14 2 0
BITMAP
01f8
07fe
1fff
3e3f
3c1f
7c1f
781f
f81e
f83e
f83c
fc7c
fff8
7fe0
1f80
ENDCHAR
STARTCHAR p
ENCODING 112
SWIDTH 681 0
DWIDTH 18 0
BBX 17 19 1 -5
BITMAP
0f8f00
1f1f80
1f3f80
1f7f80
1ecf80
1e8f80
3f0f00
3f1f00
3e1f00
3e3e00
3c7c00
7ff800
7ff000
7fc000
7c0000
7c0000
f80000
f80000
f80000
ENDCHAR
STARTCHAR q
ENCODING 113
SWIDTH 681 0
DWIDTH 18 0
BBX 16 19 2 -5
BITMAP
01ff
07ff
0fff
1f1e
3e3e
7c3e
7c7e
787e
f8bc
f9fc
ff7c
fe7c
fc7c
78f8
00f8
00f8
00f8
00f8
01f0
ENDCHAR
STARTCHAR r
ENCODING 114
SWIDTH 542 0
DWIDTH 14 0
BBX 14 14 2 0
BITMAP
1f1c
3e3c
3e78
3ef8
3fc0
3d80
7f00
7e00
7c00
7c00
7c00
f800
f800
f800
ENDCHAR
STARTCHAR s
ENCODING 115
SWIDTH 527 0
DWIDTH 14 0
BBX 13 14 1 0
BITMAP
03f8
0ff8
1ff0
1f00
1e00
1f00
0fc0
07e0
03e0
01f0
43f0
ffe0
ffc0
7f80
ENDCHAR
STARTCHAR t
ENCODING 116
SWIDTH 437 0
DWIDTH 11 0
BBX 10 18 3 0
BITMAP
0700
1f00
1f00
3f00
ffc0
ffc0
ffc0
3e00
7e00
7c00
7c00
7c00
7c00
f800
fc00
ff00
ff00
3f00
ENDCHAR
STARTCHAR u
ENCODING 117
SWIDTH 675 0
DWIDTH 18 0
BBX 16 14 2 0
BITMAP
3e1f
3e1f
3e3e
7c3e
7c3e
7c3e
7c7e
7cfc
f9bc
fb7c
ff7c
fe7c
fc78
78f8
ENDCHAR
STARTCHAR v
ENCODING 118
SWIDTH 630 0
DWIDTH 16 0
BBX 16 14 3 0
BITMAP
f80f
f80e
fc1c
7c3c
7c38
7c78
7c70
7ce0
3fe0
3fc0
3fc0
3f80
3f80
3f00
ENDCHAR
STARTCHAR w
ENCODING 119
SWIDTH 878 0
DWIDTH 23 0
BBX 22 14 3 0
BITMAP
f07c3c
f07c38
f0fc78
f8fc70
f9fcf0
f9fce0
fbbde0
fbbdc0
ff3fc0
ff3f80
fe3f80
fe3f00
7c3f00
7c3e00
ENDCHAR
STARTCHAR x
ENCODING 120
SWIDTH 563 0
DWIDTH 15 0
BBX 16 14 0 0
BITMAP
1f0f
0f1e
0fbc
0ff8
07f0
07f0
03e0
07e0
07e0
0ff0
1ff0
3df0
78f8
f0f8
ENDCHAR
STARTCHAR y
ENCODING 121
SWIDTH 633 0
DWIDTH 16 0
BBX 18 19 1 -5
BITMAP
3e03c0
3e0780
1f0700
1f0f00
1f1e00
1f1c00
1f3c00
1ff800
0ff000
0ff000
0fe000
0fc000
0fc000
078000
0f0000
1f0000
3e0000
7c0000
fc0000
ENDCHAR
STARTCHAR z
ENCODING 122
SWIDTH 630 0
DWIDTH 16 0
BBX 16 14 1 0
BITMAP
1fff
1fff
1ffe
007e
00fc
01f0
03e0
07c0
0f80
3f00
7e00
7ffc
fffc
fffc
ENDCHAR
STARTCHAR braceleft
ENCODING 123
SWIDTH 386 0
DWIDTH 10 0
BBX 10 24 2 -4
BITMAP
03c0
0fc0
0fc0
1f00
1f00
1f00
1f00
1f00
1f00
1e00
7e00
7800
f800
fc00
3c00
3c00
3c00
7c00
7c00
f800
f800
fc00
7c00
3800
ENDCHAR
STARTCHAR bar
ENCODING 124
SWIDTH 259 0
DWIDTH 7 0
BBX 8 24 1 -4
BITMAP
07
07
06
0e
0e
0e
0e
0c
1c
1c
1c
1c
38
38
38
38
30
70
70
70
70
60
e0
e0
ENDCHAR
STARTCHAR braceright
ENCODING 125
SWIDTH 386 0
DWIDTH 10 0
BBX 10 24 1 -4
BITMAP
0f00
0f80
0fc0
07c0
07c0
0f80
0f80
0f80
0f00
0f00
0fc0
07c0
0780
1f80
1e00
3e00
3e00
3e00
3e00
3e00
3e00
fc00
fc00
f000
ENDCHAR
STARTCHAR asciitilde
ENCODING 126
SWIDTH 687 0
DWIDTH 18 0
BBX 16 7 2 4
BITMAP
1e00
3f07
7f87
63c6
e1fe
e0fc
0078
ENDCHAR
STARTCHAR nobreakspace
ENCODING 160
SWIDTH 343 0
DWIDTH 9 0
BBX 1 1 0 0
BITMAP
00
ENDCHAR
STARTCHAR Aogonek
ENCODING 161
SWIDTH 771 0
DWIDTH 20 0
BBX 19 22 0 -3
BITMAP
003e00
007f00
007f00
00ff00
00ff00
01ef00
01cf80
03cf80
038f80
078f80
070780
0fffc0
1fffc0
1fffc0
3c07c0
3803c0
7803e0
7003e0
f003e0
00e000
01c000
01f000
ENDCHAR
STARTCHAR breve
ENCODING 162
SWIDTH 663 0
DWIDTH 17 0
BBX 9 3 8 17
BITMAP
e380
ff00
7c00
ENDCHAR
STARTCHAR Lstroke
ENCODING 163
SWIDTH 623 0
DWIDTH 16 0
BBX 16 19 0 0
BITMAP
07c0
07c0
07c0
07c0
0fc0
0f90
0ff0
0ff0
0fe0
1f80
7f00
7f00
ff00
9f00
1f00
3e00
3fff
3fff
3fff
ENDCHAR
STARTCHAR currency
ENCODING 164
SWIDTH 687 0
DWIDTH 18 0
BBX 20 19 1 0
BITMAP
040020
1c0060
1c00f0
0e01e0
0f7bc0
07ff80
03ff00
079e00
078f00
0f0f00
0f0e00
071e00
079e00
0ffe00
1ffe00
7de700
f80780
600380
400200
ENDCHAR
STARTCHAR Lcaron
ENCODING 165
SWIDTH 720 0
DWIDTH 19 0
BBX 17 22 2 0
BITMAP
000f80
001f80
001f80
0f9f00
1f1f00
1f0700
1f0e00
1f3e00
1f3800
3e0000
3e0000
3e0000
3e0000
3e0000
7c0000
7c0000
7c0000
7c0000
7c0000
fffc00
fffc00
fffc00
ENDCHAR
STARTCHAR Sacute
ENCODING 166
SWIDTH 639 0
DWIDTH 17 0
BBX 17 23 2 0
BITMAP
000f80
001c00
007800
000000
01fe00
07ff00
0fff00
1f0200
1f0000
1f0000
1f8000
1fc000
1ff000
07f800
03fc00
00fc00
007e00
007e00
007c00
607c00
fff800
fff000
ff8000
ENDCHAR
STARTCHAR section
ENCODING 167
SWIDTH 687 0
DWIDTH 18 0
BBX 16 23 2 -4
BITMAP
01fe
07ff
0fff
1f82
1f00
1f80
0fe0
0ff8
0ffc
1cfe
3c3e
3c1e
3e1c
3ffc
1ff8
0ff8
03f8
00fc
007c
40f8
fff8
fff0
7f80
ENDCHAR
STARTCHAR diaeresis
ENCODING 168
SWIDTH 663 0
DWIDTH 17 0
BBX 9 3 8 16
BITMAP
7380
e380
e700
ENDCHAR
STARTCHAR Scaron
ENCODING 169
SWIDTH 639 0
DWIDTH 17 0
BBX 16 23 2 0
BITMAP
01c7
00fc
0078
0000
01fe
07ff
0fff
1f02
1f00
1f00
1f80
1fc0
1ff0
07f8
03fc
00fc
007e
007e
007c
607c
fff8
fff0
ff80
ENDCHAR
STARTCHAR Scedilla
ENCODING 170
SWIDTH 639 0
DWIDTH 17 0
BBX 16 24 2 -5
BITMAP
01fe
07ff
0fff
1f02
1f00
1f00
1f80
1fc0
1ff0
07f8
03fc
00fc
007e
007e
007c
607c
fff8
fff0
ff80
01c0
0380
01c0
01c0
0780
ENDCHAR
STARTCHAR Tcaron
ENCODING 171
SWIDTH 747 0
DWIDTH 19 0
BBX 19 23 4 0
BITMAP
038e00
01f800
00f000
000000
ffffe0
ffffe0
ffffe0
01f000
03e000
03e000
03e000
03e000
03e000
03c000
07c000
07c000
07c000
07c000
078000
0f8000
0f8000
0f8000
0f8000
ENDCHAR
STARTCHAR Zacute
ENCODING 172
SWIDTH 687 0
DWIDTH 18 0
BBX 18 23 2 0
BITMAP
0007c0
000e00
003c00
000000
0fffc0
0fffc0
0fffc0
001f80
003f00
007e00
00fe00
00fc00
01f800
03f000
07e000
0fc000
1fc000
1f8000
3f0000
7e0000
7ffe00
fffe00
fffe00
ENDCHAR
STARTCHAR hyphen
ENCODING 173
SWIDTH 289 0
DWIDTH 8 0
BBX 6 3 2 7
BITMAP
fc
fc
fc
ENDCHAR
STARTCHAR Zcaron
ENCODING 174
SWIDTH 687 0
DWIDTH 18 0
BBX 18 23 2 0
BITMAP
00e380
007e00
003c00
000000
0fffc0
0fffc0
0fffc0
001f80
003f00
007e00
00fe00
00fc00
01f800
03f000
07e000
0fc000
1fc000
1f8000
3f0000
7e0000
7ffe00
fffe00
fffe00
ENDCHAR
STARTCHAR Zabovedot
ENCODING 175
SWIDTH 687 0
DWIDTH 18 0
BBX 18 23 2 0
BITMAP
001c00
003c00
003800
000000
0fffc0
0fffc0
0fffc0
001f80
003f00
007e00
00fe00
00fc00
01f800
03f000
07e000
0fc000
1fc000
1f8000
3f0000
7e0000
7ffe00
fffe00
fffe00
ENDCHAR
STARTCHAR degree
ENCODING 176
SWIDTH 241 0
DWIDTH 6 0
BBX 4 5 4 14
BITMAP
70
90
90
90
70
ENDCHAR
STARTCHAR aogonek
ENCODING 177
SWIDTH 681 0
DWIDTH 18 0
BBX 16 17 2 -3
BITMAP
01ff
07ff
0fff
1f1e
3e3e
7c3e
7c7e
787e
f8bc
f9bc
ff7c
fe7c
fc7c
78f8
0380
0700
07c0
ENDCHAR
STARTCHAR ogonek
ENCODING 178
SWIDTH 663 0
DWIDTH 17 0
BBX 5 3 6 -4
BITMAP
70
e0
f8
ENDCHAR
STARTCHAR lstroke
ENCODING 179
SWIDTH 343 0
DWIDTH 9 0
BBX 12 20 1 0
BITMAP
07c0
07c0
07c0
07c0
07c0
0fb0
0ff0
0fe0
0fe0
1f80
7f00
7f00
ff00
9f00
3f00
3e00
3e00
3e00
3e00
7e00
ENDCHAR
STARTCHAR acute
ENCODING 180
SWIDTH 663 0
DWIDTH 17 0
BBX 8 3 9 17
BITMAP
1f
38
f0
ENDCHAR
STARTCHAR lcaron
ENCODING 181
SWIDTH 644 0
DWIDTH 17 0
BBX 17 23 2 0
BITMAP
000f80
001f80
001f80
0f9f00
0f9f00
1f8700
1f0e00
1f3e00
1f3800
1f0000
3f0000
3e0000
3e0000
3e0000
3e0000
7e0000
7c0000
7c0000
7c0000
7c0000
fc0000
f80000
f80000
ENDCHAR
STARTCHAR sacute
ENCODING 182
SWIDTH 527 0
DWIDTH 14 0
BBX 15 18 1 0
BITMAP
003e
0070
01e0
0000
03f8
0ff8
1ff0
1f00
1e00
1f00
0fc0
07e0
03e0
01f0
43f0
ffe0
ffc0
7f80
ENDCHAR
STARTCHAR caron
ENCODING 183
SWIDTH 663 0
DWIDTH 17 0
BBX 9 3 8 17
BITMAP
e380
7e00
3c00
ENDCHAR
STARTCHAR cedilla
ENCODING 184
SWIDTH 663 0
DWIDTH 17 0
BBX 5 5 6 -5
BITMAP
38
70
38
38
f0
ENDCHAR
STARTCHAR scaron
ENCODING 185
SWIDTH 527 0
DWIDTH 14 0
BBX 14 18 1 0
BITMAP
071c
03f0
01e0
0000
03f8
0ff8
1ff0
1f00
1e00
1f00
0fc0
07e0
03e0
01f0
43f0
ffe0
ffc0
7f80
ENDCHAR
STARTCHAR scedilla
ENCODING 186
SWIDTH 527 0
DWIDTH 14 0
BBX 13 19 1 -5
BITMAP
03f8
0ff8
1ff0
1f00
1e00
1f00
0fc0
07e0
03e0
01f0
43f0
ffe0
ffc0
7f80
0380
0700
0380
0380
0f00
ENDCHAR
STARTCHAR tcaron
ENCODING 187
SWIDTH 644 0
DWIDTH 17 0
BBX 16 24 3 0
BITMAP
001f
003f
003f
003e
003e
000e
071c
1f7c
1f70
3f00
ffc0
ffc0
ffc0
3e00
7e00
7c00
7c00
7c00
7c00
f800
fc00
ff00
ff00
3f00
ENDCHAR
STARTCHAR zacute
ENCODING 188
SWIDTH 630 0
DWIDTH 16 0
BBX 16 18 1 0
BITMAP
001f
0038
00f0
0000
1fff
1fff
1ffe
007e
00fc
01f0
03e0
07c0
0f80
3f00
7e00
7ffc
fffc
fffc
ENDCHAR
STARTCHAR doubleacute
ENCODING 189
SWIDTH 663 0
DWIDTH 17 0
BBX 11 3 8 17
BITMAP
1fe0
3b80
ee00
ENDCHAR
STARTCHAR zcaron
ENCODING 190
SWIDTH 630 0
DWIDTH 16 0
BBX 16 18 1 0
BITMAP
038e
01f8
00f0
0000
1fff
1fff
1ffe
007e
00fc
01f0
03e0
07c0
0f80
3f00
7e00
7ffc
fffc
fffc
ENDCHAR
STARTCHAR zabovedot
ENCODING 191
SWIDTH 630 0
DWIDTH 16 0
BBX 16 18 1 0
BITMAP
0070
00f0
00e0
0000
1fff
1fff
1ffe
007e
00fc
01f0
03e0
07c0
0f80
3f00
7e00
7ffc
fffc
fffc
ENDCHAR
STARTCHAR Racute
ENCODING 192
SWIDTH 708 0
DWIDTH 18 0
BBX 17 23 2 0
BITMAP
000f80
001c00
007800
000000
0ffe00
1fff00
1fff80
1f0f80
1f0f80
1e0f80
3e1f00
3e3f00
3efe00
3ff800
3ff000
7cf800
7cf800
7c7800
7c7c00
787c00
f83e00
f83e00
f83f00
ENDCHAR
STARTCHAR Aacute
ENCODING 193
SWIDTH 771 0
DWIDTH 20 0
BBX 19 23 0 0
BITMAP
0007c0
000e00
003c00
000000
003e00
007f00
007f00
00ff00
00ff00
01ef00
01cf80
03cf80
038f80
078f80
070780
0fffc0
1fffc0
1fffc0
3c07c0
3803c0
7803e0
7003e0
f003e0
ENDCHAR
STARTCHAR Acircumflex
ENCODING 194
SWIDTH 771 0
DWIDTH 20 0
BBX 19 23 0 0
BITMAP
000f00
001f80
0071c0
000000
003e00
007f00
007f00
00ff00
00ff00
01ef00
01cf80
03cf80
038f80
078f80
070780
0fffc0
1fffc0
1fffc0
3c07c0
3803c0
7803e0
7003e0
f003e0
ENDCHAR
STARTCHAR Abreve
ENCODING 195
SWIDTH 771 0
DWIDTH 20 0
BBX 19 23 0 0
BITMAP
0071c0
007f80
003e00
000000
003e00
007f00
007f00
00ff00
00ff00
01ef00
01cf80
03cf80
038f80
078f80
070780
0fffc0
1fffc0
1fffc0
3c07c0
3803c0
7803e0
7003e0
f003e0
ENDCHAR
STARTCHAR Adiaeresis
ENCODING 196
SWIDTH 771 0
DWIDTH 20 0
BBX 19 23 0 0
BITMAP
0039c0
0071c0
007380
000000
003e00
007f00
007f00
00ff00
00ff00
01ef00
01cf80
03cf80
038f80
078f80
070780
0fffc0
1fffc0
1fffc0
3c07c0
3803c0
7803e0
7003e0
f003e0
ENDCHAR
STARTCHAR Lacute
ENCODING 197
SWIDTH 623 0
DWIDTH 16 0
BBX 14 23 2 0
BITMAP
00f8
01c0
0780
0000
0f80
1f00
1f00
1f00
1f00
1f00
3e00
3e00
3e00
3e00
3e00
7c00
7c00
7c00
7c00
7c00
fffc
fffc
fffc
ENDCHAR
STARTCHAR Cacute
ENCODING 198
SWIDTH 737 0
DWIDTH 19 0
BBX 19 23 2 0
BITMAP
0003e0
000700
001e00
000000
007fc0
01ffe0
07ffe0
0fc040
1f8000
3f0000
3e0000
7c0000
7c0000
f80000
f80000
f80000
f80000
fc0000
fc0000
7f0300
7fff00
3fff00
07f800
ENDCHAR
STARTCHAR Ccedilla
ENCODING 199
SWIDTH 737 0
DWIDTH 19 0
BBX 19 24 2 -5
BITMAP
007fc0
01ffe0
07ffe0
0fc040
1f8000
3f0000
3e0000
7c0000
7c0000
f80000
f80000
f80000
f80000
fc0000
fc0000
7f0300
7fff00
3fff00
07f800
030000
070000
038000
038000
0f0000
ENDCHAR
STARTCHAR Ccaron
ENCODING 200
SWIDTH 737 0
DWIDTH 19 0
BBX 19 23 2 0
BITMAP
0071c0
003f00
001e00
000000
007fc0
01ffe0
07ffe0
0fc040
1f8000
3f0000
3e0000
7c0000
7c0000
f80000
f80000
f80000
f80000
fc0000
fc0000
7f0300
7fff00
3fff00
07f800
ENDCHAR
STARTCHAR Eacute
ENCODING 201
SWIDTH 642 0
DWIDTH 17 0
BBX 17 23 2 0
BITMAP
003e00
007000
01e000
000000
0fff80
0fff80
1fff00
1f0000
1f0000
1f0000
1f0000
3f0000
3ffc00
3ffc00
3ff800
3e0000
7e0000
7c0000
7c0000
7c0000
7ffc00
fffc00
fffc00
ENDCHAR
STARTCHAR Eogonek
ENCODING 202
SWIDTH 642 0
DWIDTH 17 0
BBX 17 22 2 -3
BITMAP
0fff80
0fff80
1fff00
1f0000
1f0000
1f0000
1f0000
3f0000
3ffc00
3ffc00
3ff800
3e0000
7e0000
7c0000
7c0000
7c0000
7ffc00
fffc00
fffc00
01c000
038000
03e000
ENDCHAR
STARTCHAR Ediaeresis
ENCODING 203
SWIDTH 642 0
DWIDTH 17 0
BBX 17 23 2 0
BITMAP
01ce00
038e00
039c00
000000
0fff80
0fff80
1fff00
1f0000
1f0000
1f0000
1f0000
3f0000
3ffc00
3ffc00
3ff800
3e0000
7e0000
7c0000
7c0000
7c0000
7ffc00
fffc00
fffc00
ENDCHAR
STARTCHAR Ecaron
ENCODING 204
SWIDTH 642 0
DWIDTH 17 0
BBX 17 23 2 0
BITMAP
01c700
00fc00
007800
000000
0fff80
0fff80
1fff00
1f0000
1f0000
1f0000
1f0000
3f0000
3ffc00
3ffc00
3ff800
3e0000
7e0000
7c0000
7c0000
7c0000
7ffc00
fffc00
fffc00
ENDCHAR
STARTCHAR Iacute
ENCODING 205
SWIDTH 361 0
DWIDTH 9 0
BBX 11 23 2 0
BITMAP
03e0
0700
1e00
0000
0f80
0f80
1f00
1f00
1f00
1f00
1f00
3e00
3e00
3e00
3e00
3e00
7c00
7c00
7c00
7c00
7c00
f800
f800
ENDCHAR
STARTCHAR Icircumflex
ENCODING 206
SWIDTH 361 0
DWIDTH 9 0
BBX 11 23 2 0
BITMAP
0780
0fc0
38e0
0000
0f80
0f80
1f00
1f00
1f00
1f00
1f00
3e00
3e00
3e00
3e00
3e00
7c00
7c00
7c00
7c00
7c00
f800
f800
ENDCHAR
STARTCHAR Dcaron
ENCODING 207
SWIDTH 822 0
DWIDTH 21 0
BBX 20 23 2 0
BITMAP
00e380
007e00
003c00
000000
0fff00
1fffc0
1fffe0
1f07f0
1f03f0
1e01f0
3e01f0
3e01f0
3e01f0
3e03f0
3e03e0
7c03e0
7c07e0
7c0fc0
7c1fc0
7c3f80
ffff00
fffc00
fff000
ENDCHAR
STARTCHAR Dstroke
ENCODING 208
SWIDTH 822 0
DWIDTH 21 0
BBX 21 19 1 0
BITMAP
0fff80
0fffe0
0ffff0
0f83f8
0f81f8
1f00f8
1f00f8
1f00f8
fff0f8
ffe1f8
ffe1f0
3e01f0
3e03f0
3e07e0
3e0fe0
3e1fc0
7fff80
7ffe00
7ff800
ENDCHAR
STARTCHAR Nacute
ENCODING 209
SWIDTH 789 0
DWIDTH 20 0
BBX 20 23 2 0
BITMAP
0007c0
000e00
003c00
000000
0f00f0
1f80f0
1f80f0
1fc1e0
1fc1e0
1fe1e0
3fe1e0
3ff1e0
3df3c0
3dfbc0
3cfbc0
78ffc0
787fc0
787f80
783f80
783f80
f01f80
f01f80
f00f00
ENDCHAR
STARTCHAR Ncaron
ENCODING 210
SWIDTH 789 0
DWIDTH 20 0
BBX 20 23 2 0
BITMAP
00e380
007e00
003c00
000000
0f00f0
1f80f0
1f80f0
1fc1e0
1fc1e0
1fe1e0
3fe1e0
3ff1e0
3df3c0
3dfbc0
3cfbc0
78ffc0
787fc0
787f80
783f80
783f80
f01f80
f01f80
f00f00
ENDCHAR
STARTCHAR Oacute
ENCODING 211
SWIDTH 855 0
DWIDTH 22 0
BBX 21 23 3 0
BITMAP
000f80
001c00
007800
000000
007f00
01ffc0
07ffe0
0fc3f0
1f01f8
3e01f8
3e01f8
7c01f8
7c01f8
fc01f8
f801f0
f801f0
f803e0
fc07e0
fc07c0
7e1f80
3fff00
1ffc00
07f000
ENDCHAR
STARTCHAR Ocircumflex
ENCODING 212
SWIDTH 855 0
DWIDTH 22 0
BBX 21 23 3 0
BITMAP
001e00
003f00
00e380
000000
007f00
01ffc0
07ffe0
0fc3f0
1f01f8
3e01f8
3e01f8
7c01f8
7c01f8
fc01f8
f801f0
f801f0
f803e0
fc07e0
fc07c0
7e1f80
3fff00
1ffc00
07f000
ENDCHAR
STARTCHAR Odoubleacute
ENCODING 213
SWIDTH 855 0
DWIDTH 22 0
BBX 21 23 3 0
BITMAP
000ff0
001dc0
007700
000000
007f00
01ffc0
07ffe0
0fc3f0
1f01f8
3e01f8
3e01f8
7c01f8
7c01f8
fc01f8
f801f0
f801f0
f803e0
fc07e0
fc07c0
7e1f80
3fff00
1ffc00
07f000
ENDCHAR
STARTCHAR Odiaeresis
ENCODING 214
SWIDTH 855 0
DWIDTH 22 0
BBX 21 23 3 0
BITMAP
007380
00e380
00e700
000000
007f00
01ffc0
07ffe0
0fc3f0
1f01f8
3e01f8
3e01f8
7c01f8
7c01f8
fc01f8
f801f0
f801f0
f803e0
fc07e0
fc07c0
7e1f80
3fff00
1ffc00
07f000
ENDCHAR
STARTCHAR multiply
ENCODING 215
SWIDTH 687 0
DWIDTH 18 0
BBX 17 16 2 0
BITMAP
080100
380300
1c0780
1e1f00
0f3e00
077800
03f000
03e000
03e000
07e000
0f7000
3e7800
7c3c00
f01c00
600e00
400800
ENDCHAR
STARTCHAR Rcaron
ENCODING 216
SWIDTH 708 0
DWIDTH 18 0
BBX 17 23 2 0
BITMAP
01c700
00fc00
007800
000000
0ffe00
1fff00
1fff80
1f0f80
1f0f80
1e0f80
3e1f00
3e3f00
3efe00
3ff800
3ff000
7cf800
7cf800
7c7800
7c7c00
787c00
f83e00
f83e00
f83f00
ENDCHAR
STARTCHAR Uring
ENCODING 217
SWIDTH 759 0
DWIDTH 20 0
BBX 18 24 3 0
BITMAP
003000
004800
004800
003000
000000
3e03c0
3e07c0
3e07c0
3e0780
3c0780
7c0780
7c0f80
7c0f80
7c0f00
7c0f00
f80f00
f80f00
f81f00
f81e00
f81e00
fc3c00
7ffc00
3ff000
0fe000
ENDCHAR
STARTCHAR Uacute
ENCODING 218
SWIDTH 759 0
DWIDTH 20 0
BBX 18 23 3 0
BITMAP
003e00
007000
01e000
000000
3e03c0
3e07c0
3e07c0
3e0780
3c0780
7c0780
7c0f80
7c0f80
7c0f00
7c0f00
f80f00
f80f00
f81f00
f81e00
f81e00
fc3c00
7ffc00
3ff000
0fe000
ENDCHAR
STARTCHAR Udoubleacute
ENCODING 219
SWIDTH 759 0
DWIDTH 20 0
BBX 18 23 3 0
BITMAP
003fc0
007700
01dc00
000000
3e03c0
3e07c0
3e07c0
3e0780
3c0780
7c0780
7c0f80
7c0f80
7c0f00
7c0f00
f80f00
f80f00
f81f00
f81e00
f81e00
fc3c00
7ffc00
3ff000
0fe000
ENDCHAR
STARTCHAR Udiaeresis
ENCODING 220
SWIDTH 759 0
DWIDTH 20 0
BBX 18 23 3 0
BITMAP
01ce00
038e00
039c00
000000
3e03c0
3e07c0
3e07c0
3e0780
3c0780
7c0780
7c0f80
7c0f80
7c0f00
7c0f00
f80f00
f80f00
f81f00
f81e00
f81e00
fc3c00
7ffc00
3ff000
0fe000
ENDCHAR
STARTCHAR Yacute
ENCODING 221
SWIDTH 681 0
DWIDTH 18 0
BBX 17 23 4 0
BITMAP
007c00
00e000
03c000
000000
f80780
7c0f00
7c1e00
7c3c00
3e3800
3e7800
3ef000
1fe000
1fc000
1fc000
0f8000
0f8000
1f8000
1f0000
1f0000
1f0000
1f0000
3f0000
3e0000
ENDCHAR
STARTCHAR Tcedilla
ENCODING 222
SWIDTH 747 0
DWIDTH 19 0
BBX 19 24 4 -5
BITMAP
ffffe0
ffffe0
ffffe0
01f000
03e000
03e000
03e000
03e000
03e000
03c000
07c000
07c000
07c000
07c000
078000
0f8000
0f8000
0f8000
0f8000
007000
00e000
007000
007000
01e000
ENDCHAR
STARTCHAR ssharp
ENCODING 223
SWIDTH 708 0
DWIDTH 18 0
BBX 17 25 1 -5
BITMAP
00fc00
01ff00
03ff00
07cf00
0f8f00
0f9e00
0f9c00
0f3800
1f3800
1f7800
1f7c00
1f3e00
1e3f00
3e1f80
3e0f80
3e0780
3e8780
3cff80
7cff00
7cfc00
7c0000
7c0000
780000
f80000
f80000
ENDCHAR
STARTCHAR racute
ENCODING 224
SWIDTH 542 0
DWIDTH 14 0
BBX 15 18 2 0
BITMAP
003e
0070
01e0
0000
1f1c
3e3c
3e78
3ef8
3fc0
3d80
7f00
7e00
7c00
7c00
7c00
f800
f800
f800
ENDCHAR
STARTCHAR aacute
ENCODING 225
SWIDTH 681 0
DWIDTH 18 0
BBX 16 18 2 0
BITMAP
003e
0070
01e0
0000
01ff
07ff
0fff
1f1e
3e3e
7c3e
7c7e
787e
f8bc
f9bc
ff7c
fe7c
fc7c
78f8
ENDCHAR
STARTCHAR acircumflex
ENCODING 226
SWIDTH 681 0
DWIDTH 18 0
BBX 16 18 2 0
BITMAP
0078
00fc
038e
0000
01ff
07ff
0fff
1f1e
3e3e
7c3e
7c7e
787e
f8bc
f9bc
ff7c
fe7c
fc7c
78f8
ENDCHAR
STARTCHAR abreve
ENCODING 227
SWIDTH 681 0
DWIDTH 18 0
BBX 16 18 2 0
BITMAP
01c7
01fe
00f8
0000
01ff
07ff
0fff
1f1e
3e3e
7c3e
7c7e
787e
f8bc
f9bc
ff7c
fe7c
fc7c
78f8
ENDCHAR
STARTCHAR adiaeresis
ENCODING 228
SWIDTH 681 0
DWIDTH 18 0
BBX 16 18 2 0
BITMAP
01ce
038e
039c
0000
01ff
07ff
0fff
1f1e
3e3e
7c3e
7c7e
787e
f8bc
f9bc
ff7c
fe7c
fc7c
78f8
ENDCHAR
STARTCHAR lacute
ENCODING 229
SWIDTH 343 0
DWIDTH 9 0
BBX 13 24 2 0
BITMAP
00f8
01c0
0780
0000
0f80
0f80
1f80
1f00
1f00
1f00
1f00
3f00
3e00
3e00
3e00
3e00
7e00
7c00
7c00
7c00
7c00
fc00
f800
f800
ENDCHAR
STARTCHAR cacute
ENCODING 230
SWIDTH 548 0
DWIDTH 14 0
BBX 16 18 2 0
BITMAP
001f
0038
00f0
0000
01f8
07fc
0ff8
3f08
3e00
7c00
7c00
f800
f800
f800
fc30
fff0
7fe0
1f80
ENDCHAR
STARTCHAR ccedilla
ENCODING 231
SWIDTH 548 0
DWIDTH 14 0
BBX 14 19 2 -5
BITMAP
01f8
07fc
0ff8
3f08
3e00
7c00
7c00
f800
f800
f800
fc30
fff0
7fe0
1f80
0c00
1c00
0e00
0e00
3c00
ENDCHAR
STARTCHAR ccaron
ENCODING 232
SWIDTH 548 0
DWIDTH 14 0
BBX 15 18 2 0
BITMAP
038e
01f8
00f0
0000
01f8
07fc
0ff8
3f08
3e00
7c00
7c00
f800
f800
f800
fc30
fff0
7fe0
1f80
ENDCHAR
STARTCHAR eacute
ENCODING 233
SWIDTH 612 0
DWIDTH 16 0
BBX 15 18 2 0
BITMAP
003e
0070
01e0
0000
01f0
07f8
1ffc
3e7c
3c7c
7cf8
7ff0
ffe0
ff80
f804
fc1c
fffc
7ff8
1fc0
ENDCHAR
STARTCHAR eogonek
ENCODING 234
SWIDTH 612 0
DWIDTH 16 0
BBX 14 17 2 -3
BITMAP
01f0
07f8
1ffc
3e7c
3c7c
7cf8
7ff0
ffe0
ff80
f804
fc1c
fffc
7ff8
1fc0
0700
0e00
0f80
ENDCHAR
STARTCHAR ediaeresis
ENCODING 235
SWIDTH 612 0
DWIDTH 16 0
BBX 15 18 2 0
BITMAP
01ce
038e
039c
0000
01f0
07f8
1ffc
3e7c
3c7c
7cf8
7ff0
ffe0
ff80
f804
fc1c
fffc
7ff8
1fc0
ENDCHAR
STARTCHAR ecaron
ENCODING 236
SWIDTH 612 0
DWIDTH 16 0
BBX 14 18 2 0
BITMAP
071c
03f0
01e0
0000
01f0
07f8
1ffc
3e7c
3c7c
7cf8
7ff0
ffe0
ff80
f804
fc1c
fffc
7ff8
1fc0
ENDCHAR
STARTCHAR iacute
ENCODING 237
SWIDTH 343 0
DWIDTH 9 0
BBX 11 18 2 0
BITMAP
03e0
0700
1e00
0000
1f00
1f00
3e00
3e00
3e00
3e00
3e00
7c00
7c00
7c00
7c00
7c00
f800
f800
ENDCHAR
STARTCHAR icircumflex
ENCODING 238
SWIDTH 343 0
DWIDTH 9 0
BBX 11 18 2 0
BITMAP
0780
0fc0
38e0
0000
1f00
1f00
3e00
3e00
3e00
3e00
3e00
7c00
7c00
7c00
7c00
7c00
f800
f800
ENDCHAR
STARTCHAR dcaron
ENCODING 239
SWIDTH 985 0
DWIDTH 26 0
BBX 26 23 2 0
BITMAP
000007c0
00000fc0
00000fc0
0007cf80
0007cf80
000f8380
000f8700
000f9f00
000f9c00
01ff8000
07ff0000
0fff0000
1f1f0000
3e1f0000
3c1f0000
7c3e0000
787e0000
f8fe0000
f9be0000
ffbe0000
ff7c0000
7e7c0000
387c0000
ENDCHAR
STARTCHAR dstroke
ENCODING 240
SWIDTH 909 0
DWIDTH 24 0
BBX 24 20 2 0
BITMAP
0007c0
0007c0
03ffff
03ffff
000f80
000f80
01ff80
07ff00
0fff00
1f1f00
3e1f00
3c1f00
7c3e00
787e00
f8fe00
f9be00
ffbe00
ff7c00
7e7c00
387c00
ENDCHAR
STARTCHAR nacute
ENCODING 241
SWIDTH 675 0
DWIDTH 18 0
BBX 16 18 2 0
BITMAP
001f
0038
00f0
0000
1f1e
1e3f
3e7f
3eff
3edf
3d9f
3f3e
7e3e
7c3e
7c3e
7c3e
787c
f87c
f87c
ENDCHAR
STARTCHAR ncaron
ENCODING 242
SWIDTH 675 0
DWIDTH 18 0
BBX 16 18 2 0
BITMAP
038e
01f8
00f0
0000
1f1e
1e3f
3e7f
3eff
3edf
3d9f
3f3e
7e3e
7c3e
7c3e
7c3e
787c
f87c
f87c
ENDCHAR
STARTCHAR oacute
ENCODING 243
SWIDTH 663 0
DWIDTH 17 0
BBX 16 18 2 0
BITMAP
003e
0070
01e0
0000
01f8
07fe
1fff
3e3f
3c1f
7c1f
781f
f81e
f83e
f83c
fc7c
fff8
7fe0
1f80
ENDCHAR
STARTCHAR ocircumflex
ENCODING 244
SWIDTH 663 0
DWIDTH 17 0
BBX 16 18 2 0
BITMAP
0078
00fc
038e
0000
01f8
07fe
1fff
3e3f
3c1f
7c1f
781f
f81e
f83e
f83c
fc7c
fff8
7fe0
1f80
ENDCHAR
STARTCHAR odoubleacute
ENCODING 245
SWIDTH 663 0
DWIDTH 17 0
BBX 17 18 2 0
BITMAP
007f80
00ee00
03b800
000000
01f800
07fe00
1fff00
3e3f00
3c1f00
7c1f00
781f00
f81e00
f83e00
f83c00
fc7c00
fff800
7fe000
1f8000
ENDCHAR
STARTCHAR odiaeresis
ENCODING 246
SWIDTH 663 0
DWIDTH 17 0
BBX 16 18 2 0
BITMAP
01ce
038e
039c
0000
01f8
07fe
1fff
3e3f
3c1f
7c1f
781f
f81e
f83e
f83c
fc7c
fff8
7fe0
1f80
ENDCHAR
STARTCHAR division
ENCODING 247
SWIDTH 687 0
DWIDTH 18 0
BBX 16 16 2 0
BITMAP
01e0
01e0
01e0
0000
0000
0000
7fff
ffff
fffe
0000
0000
0000
0000
0780
0780
0780
ENDCHAR
STARTCHAR rcaron
ENCODING 248
SWIDTH 542 0
DWIDTH 14 0
BBX 14 18 2 0
BITMAP
071c
03f0
01e0
0000
1f1c
3e3c
3e78
3ef8
3fc0
3d80
7f00
7e00
7c00
7c00
7c00
f800
f800
f800
ENDCHAR
STARTCHAR uring
ENCODING 249
SWIDTH 675 0
DWIDTH 18 0
BBX 16 19 2 0
BITMAP
0060
0090
0090
0060
0000
3e1f
3e1f
3e3e
7c3e
7c3e
7c3e
7c7e
7cfc
f9bc
fb7c
ff7c
fe7c
fc78
78f8
ENDCHAR
STARTCHAR uacute
ENCODING 250
SWIDTH 675 0
DWIDTH 18 0
BBX 16 18 2 0
BITMAP
003e
0070
01e0
0000
3e1f
3e1f
3e3e
7c3e
7c3e
7c3e
7c7e
7cfc
f9bc
fb7c
ff7c
fe7c
fc78
78f8
ENDCHAR
STARTCHAR udoubleacute
ENCODING 251
SWIDTH 675 0
DWIDTH 18 0
BBX 17 18 2 0
BITMAP
007f80
00ee00
03b800
000000
3e1f00
3e1f00
3e3e00
7c3e00
7c3e00
7c3e00
7c7e00
7cfc00
f9bc00
fb7c00
ff7c00
fe7c00
fc7800
78f800
ENDCHAR
STARTCHAR udiaeresis
ENCODING 252
SWIDTH 675 0
DWIDTH 18 0
BBX 16 18 2 0
BITMAP
01ce
038e
039c
0000
3e1f
3e1f
3e3e
7c3e
7c3e
7c3e
7c7e
7cfc
f9bc
fb7c
ff7c
fe7c
fc78
78f8
ENDCHAR
STARTCHAR yacute
ENCODING 253
SWIDTH 633 0
DWIDTH 16 0
BBX 18 23 1 -5
BITMAP
001f00
003800
00f000
000000
3e03c0
3e0780
1f0700
1f0f00
1f1e00
1f1c00
1f3c00
1ff800
0ff000
0ff000
0fe000
0fc000
0fc000
078000
0f0000
1f0000
3e0000
7c0000
fc0000
ENDCHAR
STARTCHAR tcedilla
ENCODING 254
SWIDTH 437 0
DWIDTH 11 0
BBX 10 23 3 -5
BITMAP
0700
1f00
1f00
3f00
ffc0
ffc0
ffc0
3e00
7e00
7c00
7c00
7c00
7c00
f800
fc00
ff00
ff00
3f00
0e00
1c00
0e00
0e00
3c00
ENDCHAR
STARTCHAR abovedot
ENCODING 255
SWIDTH 663 0
DWIDTH 17 0
BBX 4 3 11 17
BITMAP
70
f0
e0
ENDCHAR
ENDFONT
